<!-- Generated by IcoMoon.io -->
<svg version="1.1" xmlns="http://www.w3.org/2000/svg" width="32" height="32" viewBox="0 0 32 32">
<title>kite-filled</title>
<path fill="currentColor" d="M20.862 12.046c-0.301 2.505-0.915 5.070-1.685 6.638-0.071 0.144-0.149 0.301-0.234 0.47-0.676 1.352-1.729 3.456-2.134 5.542-0.232 1.194-0.282 2.514 0.152 3.762 0.45 1.293 1.373 2.368 2.822 3.105 1.050 0.534 2.135 0.58 3.138 0.13 0.935-0.418 1.663-1.204 2.23-2.062 1.132-1.712 1.947-4.207 2.514-6.707 0.575-2.535 0.927-5.226 1.066-7.437 0.069-1.104 0.087-2.112 0.048-2.933-0.019-0.41-0.054-0.794-0.108-1.131-0.051-0.313-0.133-0.684-0.293-1.010-0.719-1.462-1.474-2.633-2.456-3.633-1.529-1.556-3.577-3.031-5.426-4.363-0.287-0.207-0.569-0.41-0.843-0.609-0.146-0.106-0.296-0.211-0.451-0.315 0.789 1.949 1.315 3.691 1.602 5.299 0.022-0.004 0.043-0.008 0.063-0.011 0.065 0.253 0.12 0.599 0.155 1.038 0.034 0.421 0.047 0.898 0.040 1.416 0.004 0.139 0.006 0.278 0.006 0.415 0 0.832-0.072 1.627-0.205 2.396z"></path>
<path fill="currentColor" d="M18.234 7.904c-1.136 0.64-2.406 1.477-3.686 2.367-0.958 0.667-1.868 1.325-2.721 1.942-0.594 0.43-1.161 0.84-1.697 1.219-0.628 0.444-1.207 0.839-1.682 1.127-0.236 0.143-0.474 0.276-0.697 0.378-0.173 0.079-0.521 0.228-0.915 0.228-1.002 0-1.956-0.237-2.664-0.89-0.733-0.676-0.979-1.587-0.972-2.439 0.013-1.595 0.898-3.435 2.003-5.043 1.144-1.665 2.692-3.325 4.355-4.582 1.627-1.229 3.546-2.211 5.41-2.211 0.207 0 0.412 0.012 0.615 0.035 1.553 3.256 2.364 5.764 2.651 7.869z"></path>
</svg>
