<?xml version="1.0" encoding="iso-8859-1"?>
<!-- Generator: Adobe Illustrator 27.1.1, SVG Export Plug-In . SVG Version: 6.00 Build 0)  -->
<svg version="1.1" xmlns="http://www.w3.org/2000/svg" xmlns:xlink="http://www.w3.org/1999/xlink" x="0px" y="0px"
	 viewBox="0 0 2000 2000" style="enable-background:new 0 0 2000 2000;" xml:space="preserve">
<g id="Wind_Surf">
	<g>
		<path d="M1163.876,868.637c155.392,50.657,311.086,101.412,467.26,152.323c6.94-121.194,6.386-239.759,5.394-360.497
			c-56.67-34.46-110.068-74.149-159.157-102.881c-51.596-37.574-97.95-66.051-142.896-96.759
			C1300.294,522.937,1166.719,841.571,1163.876,868.637z"/>
		<path d="M1153.347,894.347c-22.552,60.961-40.295,123.034-59.68,184.72c57.239,27.145,113.97,54.024,170.773,80.951
			l382.421,175.874l-14.406-271.811C1473.09,1007.616,1313.895,951.223,1153.347,894.347z"/>
		<path d="M1641.028,325.16c-36.092-27.64-71.81-55.768-107.673-83.708c-19.834-15.453-39.752-30.798-60.232-46.656
			c-45.22,79.212-87.192,158.824-126.7,240.329c96.684,63.49,192.606,126.479,288.529,189.469c1.485-0.404,2.969-0.807,4.454-1.211
			c0-47.512,0.391-95.029-0.132-142.535c-0.372-33.741,1.294-67.38,3.342-101.005c0.944-15.483-0.795-31.164,3.342-46.509
			C1646.622,330.866,1644.274,327.646,1641.028,325.16z"/>
		<path d="M1364.334,1469.275c-35.818-2.214-71.62-4.431-107.408-7.208c-43.346-3.363-86.871-4.442-130.198-7.993
			c-12.763-1.046-25.603-0.63-38.197-2.256c-33.29-4.3-66.786-4.648-100.938-7.664c-17.682,100.198-27.888,199.666-42.502,300.676
			c166.318-89.012,330.38-176.817,495.32-265.091c-4.379-4.31-7.584-6.089-11.682-6.137
			C1407.181,1473.344,1385.799,1470.601,1364.334,1469.275z"/>
		<path d="M846.259,1827.228c8.318,2.382,16.647,4.723,25.563,7.237c2.17-3.203,3.448-5.71,5.283-7.704
			c20.405-22.15,37.931-46.538,55.454-70.934c1.317-1.833,3.441-2.762,3.42-5.795c-0.091-13.157,3.465-25.887,5.059-38.85
			c3.417-27.797,5.242-55.849,9.965-83.412c6.676-38.958,10.041-78.336,16.589-117.285c4.316-25.674,7.868-51.465,13.889-76.848
			c9.918-41.809,21.626-83.122,33.049-124.532c14.671-53.183,30.789-105.91,46.8-158.688c5.026-16.569,11.136-33.136,12.851-50.526
			c-9.295-2.433-15.829-7.123-21.92-11.99c-0.549-6.524-1.467-12.408,4.367-16.956c10.672-8.321,19.268,0.714,28.988,3.659
			c4.85-15.947,9.423-31.359,14.223-46.7c16.076-51.388,32.671-102.584,51.015-153.238c18.399-50.807,37.405-101.359,57.553-151.491
			c42.304-105.26,88.444-208.803,138.879-310.426c51.689-104.15,106.5-206.603,167.504-305.628
			c6.949-11.281,10.77-22.047,7.899-34.956c-5.823-6.335-12.936-2.687-15.195,1.646c-10.365,19.889-24.04,37.524-37.12,55.416
			c-9.788,13.388-15.43,30.238-30.899,39.566c0.658,4.191,0.212,8.028-2.169,12.073c-15.757,26.77-31.37,53.631-46.627,80.688
			c-17.718,31.419-35.45,62.839-49.729,96.06c-16.306,37.939-38.175,73.17-54.128,111.358c-4.601,11.013-8.19,22.366-12.961,33.274
			c-22.064,50.454-43.339,101.236-63.059,152.656c-17.815,46.455-36.249,92.693-53.007,139.528
			c-17.27,48.266-33.01,97.084-49.111,145.762c-12.399,37.484-24.32,75.125-36.609,113.178c-19.03,8.779-41.097-8.821-60.483,4.453
			c0,4.43,0,7.996,0,11.269c30.464,36.414,32.174,43.238,22.881,76.983c-5.162,18.743-11.343,37.146-16.089,56.072
			c-12.451,49.651-27.108,98.749-40.802,148.09c-7.926,28.556-15.56,57.193-23.565,85.727
			c-8.114,28.923-15.809,57.993-24.981,86.584c-11.172,34.827-18.29,70.892-30.642,105.216
			c-15.718,43.676-25.151,89.043-38.982,133.198c-6.644,21.21-10.148,43.403-14.889,64.335
			C845.721,1826.653,845.935,1827.135,846.259,1827.228z"/>
		<path d="M792.461,1921.162c-141.925-8.674-286.413-36.949-406.7-112.773c-9.704-6.117-19.17-13.899-29.439-18.99
			c-13.845-6.864-6.987,3.741-0.061,9.575c15.837,13.339,32.488,25.697,49.87,36.95c34.261,22.181,71.279,40.113,109.959,53.146
			c72.401,24.395,149.39,31.529,225.682,35.609c100.531,5.375,201.254,5.744,301.927,6.112c39.565,0.145,79.13,0.289,118.696,0.434
			c18.9,0.069,37.935,0.126,56.51-3.362C1076.912,1920.396,934.387,1929.836,792.461,1921.162z"/>
		<path d="M1155.111,885.166c159.556,56.586,317.665,112.66,476.473,168.981c0-9.266,0-16.726,0-23.552
			c-157.419-51.257-314.041-102.254-470.983-153.355C1159.124,879.373,1157.603,881.569,1155.111,885.166z"/>
		<path d="M1626.433,275.615c0.001,0,0.001-0.001,0.001-0.001c0.711,1.196,1.421,2.393,2.302,3.88
			c1.394-2.406,1.481-4.048-0.708-5.217c-32.766-57.119-65.532-114.239-99.45-173.367c-13.858,23.067-26.344,43.851-39.31,65.433
			C1535.386,203.082,1580.91,239.348,1626.433,275.615z"/>
		<path d="M1454.12,1459.191c-27.289-2.141-54.527-4.922-81.816-7.066c-43.299-3.401-86.612-6.642-129.942-9.624
			c-33.001-2.271-66.019-4.064-98.975-7.175c-28.174-2.66-56.672-2.207-84.735-5.568c-12.202-1.461-24.536-0.788-36.746-3.377
			c-9.161-1.943-19.064-0.384-28.683-0.384c-0.933,3.347-2.674,6.263,1.563,10.836c13.528,1.581,27.937,1.317,42.098,2.225
			c35.696,2.29,71.331,5.519,107.024,7.544c35.316,2.004,70.538,5.835,105.816,7.019c31.888,1.071,63.484,5.766,95.468,5.632
			c12.562-0.052,25.467,1.17,38.09,2.479c25.706,2.667,51.416,3.583,77.018,4.566
			C1460.945,1460.617,1458.658,1459.547,1454.12,1459.191z"/>
		<path d="M1634.363,634.365c-97.044-63.646-194.007-127.238-291.34-191.074c-2.171,3.114-3.935,5.643-5.839,8.374
			c99.307,65.74,198.192,131.201,297.179,196.729C1634.363,643.464,1634.363,639.089,1634.363,634.365z"/>
		<path d="M1478.199,187.328c55.338,43.07,110.564,86.053,165.598,128.887c0-6.424,0-12.783,0-19.143
			c-0.849,0.859-1.698,1.719-2.547,2.578c-51.731-41.596-103.463-83.193-155.296-124.87
			C1481.872,178.235,1479.762,182.311,1478.199,187.328z"/>
		<path d="M863.522,1840.103c-6.704-2.205-13.408-4.411-19.617-6.453c-5.326,3.825-4.849,7.65-2.656,12.437
			C848.573,1843.533,855.92,1843.359,863.522,1840.103z"/>
		<path d="M1266.265,1171.152c-1.325-0.85-2.743-1.629-4.258-2.344c-62.733-29.64-125.408-59.403-188.059-89.215
			c-4.833-2.299-9.368-4.132-14.029-0.57c-1.078,6.762,4.314,7.592,7.953,9.261c6.229,2.857,12.545,5.529,18.854,8.214l0.002,0.003
			l562.55,278.067l-2.417-22.218L1266.265,1171.152z"/>
		<path d="M1280.611,1200.361c-8.315-5.922-17.863-9.765-27.072-14.286c-19.483-9.548-39.013-18.975-58.568-28.378
			c-36.113-17.38-72.274-34.662-109.836-52.694c-31.859,103.189-63.983,205.049-89.315,308.745
			c15.567,4.665,29.248,3.408,42.736,4.424c26.468,2.03,52.887,4.859,79.355,6.937c15.47,1.208,31.013,1.208,46.483,2.49
			c35.919,2.973,71.742,7.735,107.685,9.209c28.257,1.184,56.344,4.4,84.553,5.874c4.109,0.218,8.243,0.435,12.425,0.653
			l0.725,0.048l30.07,2.2l50.712,3.722l201.133,14.697l-2.417-69.059L1280.611,1200.361z"/>
		<path d="M1402.683,1862.99c-4.509-0.017-9.018-0.037-13.527-0.06c-140.914-0.726-281.795-4.511-422.661-8.294
			c-79.354-2.132-158.77-4.267-237.838-11.322c-67.086-5.986-133.818-15.509-200.135-27.2c-33.179-5.849-66.26-12.243-99.263-19.013
			c-8.306-1.704-39.654-13.298-46.398-8.698c-10.702,7.3,17.464,19.507,22.364,22.336c84.252,48.653,179.373,75.932,275.165,90.178
			c109.444,16.275,220.582,16.15,331.23,15.991c82.235-0.119,164.47-0.237,246.706-0.356c53.185-0.076,107.821-0.416,157.325-19.857
			c7.445-2.924,15.75-7.582,16.685-15.526C1433.876,1868.077,1415.864,1863.039,1402.683,1862.99z"/>
	</g>
</g>
<g id="Layer_1">
</g>
</svg>
