<?xml version="1.0" encoding="iso-8859-1"?>
<!-- Generator: Adobe Illustrator 27.1.1, SVG Export Plug-In . SVG Version: 6.00 Build 0)  -->
<svg version="1.1" xmlns="http://www.w3.org/2000/svg" xmlns:xlink="http://www.w3.org/1999/xlink" x="0px" y="0px"
	 viewBox="0 0 2000 2000" style="enable-background:new 0 0 2000 2000;" xml:space="preserve">
<g id="Wingfoiling">
	<path d="M1812.038,81.205c-48.347-29.008-118.45,41.095-186.136,79.773c-67.686,38.678-183.719,292.5-285.248,384.359
		s-381.942,333.595-522.148,410.95s-367.438,275.578-367.438,275.578s-198.223,181.301-244.612,309.421
		s-98.652,176.467-72.061,236.901c54.415,123.696,169.215,147.458,169.215,147.458
		c348.099-338.429,1153.077-384.359,1153.077-384.359l-14.504-539.07l67.686,505.227c0,0,24.173-357.768,38.678-483.471
		s175.258-520.939,175.258-520.939s24.174,9.669,55.599-16.921c31.426-26.591,78.564-199.432,90.651-264.7
		S1852.868,105.704,1812.038,81.205z M516.337,1483.27l38.678-26.591L668.63,1693.58L516.337,1483.27z M779.828,1311.638
		l38.678-16.922l106.364,314.256L779.828,1311.638z M1040.902,1156.927l45.93-16.922l108.781,410.95L1040.902,1156.927z
		 M638.239,1347.25c-107.044,81.659-207.708,170.938-298.544,270.734c-29.781,32.719-58.939,67.332-75.059,108.534
		c-16.12,41.202-17.32,90.581,7.059,127.501c-28.455-32.971-47.529-76.176-43.19-119.511c3.306-33.024,19.662-63.315,38.331-90.756
		c92.614-136.132,240.526-218.211,356.972-330.896c13.658-13.217,25.654-28.142,41.576-38.512
		c20.633-13.438,41.8-26.124,62.681-39.175c41.79-26.118,83.58-52.236,125.37-78.354c83.58-52.236,167.16-104.472,250.74-156.708
		c19.213-12.008,38.787-24.176,60.663-30.069s46.797-4.693,65.196,8.528C1025.588,1088.745,822.464,1206.714,638.239,1347.25z
		 M1246.377,1002.217l45.93-16.921l130.537,546.322L1246.377,1002.217z M1560.633,849.923l-14.504-135.372l21.756-45.93
		L1560.633,849.923z M1662.162,593.684l-4.835-99.111l24.173-48.347L1662.162,593.684z M1741.934,482.486l33.843-203.058
		l31.426-41.095L1741.934,482.486z M1652.492,460.73c-9.669,21.756-142.624,299.752-178.884,345.681
		c-36.26,45.93-193.388,132.954-193.388,132.954c1.209-25.382,54.391-71.312,83.399-90.651
		c29.008-19.339,77.355-24.174,135.372-154.711c58.016-130.537,182.51-346.89,221.188-414.576
		c38.678-67.686,108.781-70.103,108.781-70.103C1761.273,233.499,1662.162,438.974,1652.492,460.73z"/>
</g>
<g id="Layer_1">
</g>
</svg>
