<?xml version="1.0" encoding="utf-8"?>
<!-- Generator: Adobe Illustrator 27.8.1, SVG Export Plug-In . SVG Version: 6.00 Build 0)  -->
<svg version="1.1" xmlns="http://www.w3.org/2000/svg" xmlns:xlink="http://www.w3.org/1999/xlink" x="0px" y="0px"
	 viewBox="0 0 175.03 69.27" style="enable-background:new 0 0 175.03 69.27;" xml:space="preserve">
<style type="text/css">
	.st0{display:none;}
	.st1{fill:#FFFFFF;}
	.st2{fill:none;}
	.st3{fill:#06BCD7;}
</style>
<g id="Layer_2" class="st0">
</g>
<g id="Layer_1">
</g>
<g id="Layer_3">
	<path class="st1" d="M20.39,46.32c2.72,0.56,4.69,1.2,5.92,1.92c1.23,0.72,1.85,1.69,1.85,2.94c0,1.2-0.5,2.16-1.49,2.9
		c-1,0.74-2.47,1.11-4.41,1.11c-2.09,0-3.75-0.48-4.99-1.44c-1.24-0.96-1.91-2.34-2-4.15H5.62c0,2.3,0.7,4.44,2.11,6.42
		c1.41,1.98,3.35,3.54,5.82,4.68c2.47,1.14,5.3,1.71,8.49,1.71c4.71,0,8.55-1.07,11.53-3.22c2.98-2.14,4.46-4.95,4.46-8.42
		c0-4.85-2.68-8.26-8.05-10.23c-1.73-0.63-3.87-1.2-6.4-1.71c-0.2-0.04-0.38-0.08-0.57-0.12c-4.45,1.02-8.66,2.21-12.59,3.48
		C12.68,44.02,16,45.4,20.39,46.32z"/>
	<path class="st1" d="M44.33,35.5v13.08c0.05,4.52,1.14,7.96,3.29,10.3c2.14,2.34,5.26,3.52,9.33,3.52c4.43,0,7.9-1.52,10.41-4.57
		l0.28,3.87h9.56V37.48c-3.15-0.65-6.53-1.19-10.2-1.58v14.71c-1.29,2.39-3.66,3.59-7.1,3.59c-3.61,0-5.41-1.98-5.41-5.95V35.18
		C51.02,35.15,47.63,35.27,44.33,35.5z"/>
	<path class="st1" d="M84.86,61.69h10.16V42.75c-3.23-1.21-6.57-2.36-10.16-3.39V61.69z"/>
	<path class="st1" d="M114.61,61.69h10.2v-8.73c-3.65-0.83-7.01-1.79-10.2-2.84V61.69z"/>
	<path class="st1" d="M137.63,55.07v6.62h10.16v-5.95c-3.07-0.07-6.22-0.26-9.45-0.58C138.11,55.13,137.88,55.1,137.63,55.07z"/>
	<path class="st1" d="M158.34,56.69c0,1.59,0.54,2.89,1.62,3.88c1.08,1,2.45,1.49,4.11,1.49c1.69,0,3.07-0.5,4.15-1.49
		c1.08-1,1.62-2.29,1.62-3.88c0-0.86-0.17-1.63-0.48-2.32c-3.49,0.52-7.13,0.91-10.91,1.15C158.38,55.89,158.34,56.28,158.34,56.69z
		"/>
</g>
<g id="Layer_4">
	<g>
		<path class="st2" d="M0,69.27h175.03V0H0V69.27z M164.07,51.25c1.66,0,3.04,0.5,4.13,1.51c0.51,0.47,0.88,1.01,1.16,1.61
			c0.31,0.69,0.48,1.46,0.48,2.32c0,1.59-0.54,2.89-1.62,3.88c-1.08,1-2.46,1.49-4.15,1.49c-1.67,0-3.04-0.5-4.11-1.49
			c-1.08-1-1.62-2.29-1.62-3.88c0-0.41,0.04-0.8,0.11-1.18c0.21-1.09,0.71-2.01,1.53-2.76C161.07,51.75,162.43,51.25,164.07,51.25z
			 M147.23,23.65l0.28,4.54c2.04-3.49,4.86-5.24,8.47-5.24c1.12,0,2.18,0.15,3.16,0.46l-0.14,9.77c-1.38-0.19-2.6-0.28-3.66-0.28
			c-3.84,0-6.36,1.3-7.56,3.9v18.94v5.95h-10.16v-6.62V23.65H147.23z M108.95,23.65h5.66v-3.23c0-4.27,1.22-7.58,3.67-9.93
			c2.45-2.36,5.88-3.53,10.28-3.53c1.41,0,3.13,0.23,5.17,0.7l-0.11,7.87c-0.84-0.21-1.88-0.32-3.09-0.32
			c-3.82,0-5.73,1.79-5.73,5.38v3.06h7.56v7.45h-7.56v21.86v8.73h-10.2V50.12V31.1h-5.66V23.65z M94.46,23.65l0.28,4.54
			c2.04-3.49,4.86-5.24,8.47-5.24c1.12,0,2.18,0.15,3.16,0.46l-0.14,9.77c-1.38-0.19-2.6-0.28-3.66-0.28c-3.84,0-6.36,1.3-7.56,3.9
			v5.96v18.93H84.86V39.37V23.65H94.46z M54.49,23.65v11.53v13.07c0,3.97,1.8,5.95,5.41,5.95c3.45,0,5.81-1.2,7.1-3.59V35.9V23.65
			h10.2v13.83v24.21h-9.56l-0.28-3.87c-2.51,3.05-5.98,4.57-10.41,4.57c-4.08,0-7.19-1.17-9.33-3.52c-2.14-2.34-3.24-5.78-3.29-10.3
			V35.5V23.65H54.49z M11.02,26.34c2.8-2.26,6.46-3.39,10.99-3.39c4.83,0,8.69,1.14,11.58,3.41c2.89,2.27,4.34,5.23,4.34,8.86H27.77
			c0-1.45-0.47-2.65-1.41-3.6c-0.94-0.95-2.4-1.42-4.39-1.42c-1.71,0-3.04,0.39-3.97,1.16c-0.94,0.77-1.41,1.76-1.41,2.95
			c0,1.12,0.53,2.03,1.6,2.72c0.98,0.64,2.6,1.19,4.82,1.67c0.19,0.04,0.38,0.08,0.57,0.12c2.53,0.5,4.66,1.07,6.4,1.71
			c5.37,1.97,8.05,5.38,8.05,10.23c0,3.47-1.49,6.28-4.46,8.42c-2.98,2.14-6.82,3.22-11.53,3.22c-3.19,0-6.02-0.57-8.49-1.71
			c-2.47-1.14-4.41-2.69-5.82-4.68c-1.41-1.98-2.11-4.12-2.11-6.42h9.63c0.09,1.81,0.76,3.19,2,4.15c1.24,0.96,2.91,1.44,4.99,1.44
			c1.95,0,3.42-0.37,4.41-1.11c1-0.74,1.49-1.71,1.49-2.9c0-1.24-0.62-2.22-1.85-2.94c-1.23-0.71-3.21-1.35-5.92-1.92
			c-4.39-0.92-7.71-2.31-9.97-4.14c-2.4-1.95-3.6-4.41-3.6-7.39C6.82,31.42,8.22,28.6,11.02,26.34z"/>
		<path class="st3" d="M10.42,42.18c3.94-1.27,8.14-2.46,12.59-3.48c-2.23-0.48-3.84-1.03-4.82-1.67c-1.07-0.69-1.6-1.6-1.6-2.72
			c0-1.2,0.47-2.18,1.41-2.95c0.94-0.77,2.26-1.16,3.97-1.16c1.99,0,3.46,0.47,4.39,1.42c0.94,0.95,1.41,2.15,1.41,3.6h10.16
			c0-3.63-1.45-6.59-4.34-8.86c-2.9-2.27-6.76-3.41-11.58-3.41c-4.52,0-8.19,1.13-10.99,3.39c-2.8,2.26-4.2,5.08-4.2,8.46
			C6.82,37.77,8.02,40.23,10.42,42.18z"/>
		<path class="st3" d="M54.49,35.18V23.65H44.33V35.5C47.63,35.27,51.02,35.15,54.49,35.18z"/>
		<path class="st3" d="M77.2,23.65h-10.2V35.9c3.67,0.4,7.04,0.93,10.2,1.58V23.65z"/>
		<path class="st3" d="M95.03,42.75V36.8c1.2-2.6,3.71-3.9,7.56-3.9c1.05,0,2.27,0.09,3.66,0.28l0.14-9.77
			c-0.98-0.3-2.04-0.46-3.16-0.46c-3.61,0-6.43,1.75-8.47,5.24l-0.28-4.54h-9.6v15.72C88.45,40.39,91.79,41.54,95.03,42.75z"/>
		<path class="st3" d="M114.61,50.12c3.18,1.04,6.54,2.01,10.2,2.84V31.1h7.56v-7.45h-7.56v-3.06c0-3.59,1.91-5.38,5.73-5.38
			c1.22,0,2.25,0.11,3.09,0.32l0.11-7.87c-2.04-0.47-3.76-0.7-5.17-0.7c-4.41,0-7.83,1.18-10.28,3.53
			c-2.45,2.36-3.67,5.67-3.67,9.93v3.23h-5.66v7.45h5.66V50.12z"/>
		<path class="st3" d="M138.35,55.15c3.23,0.33,6.37,0.51,9.45,0.58V36.8c1.2-2.6,3.71-3.9,7.56-3.9c1.05,0,2.27,0.09,3.66,0.28
			l0.14-9.77c-0.98-0.3-2.04-0.46-3.16-0.46c-3.61,0-6.43,1.75-8.47,5.24l-0.28-4.54h-9.6v31.42
			C137.88,55.1,138.11,55.13,138.35,55.15z"/>
		<path class="st3" d="M169.36,54.37c-0.27-0.6-0.65-1.14-1.16-1.61c-1.09-1.01-2.47-1.51-4.13-1.51c-1.64,0-3.01,0.5-4.1,1.51
			c-0.81,0.75-1.32,1.67-1.53,2.76C162.23,55.28,165.86,54.89,169.36,54.37z"/>
	</g>
</g>
</svg>
