<?xml version="1.0" encoding="utf-8"?>
<!-- Generator: Adobe Illustrator 27.8.1, SVG Export Plug-In . SVG Version: 6.00 Build 0)  -->
<svg version="1.1" xmlns="http://www.w3.org/2000/svg" xmlns:xlink="http://www.w3.org/1999/xlink" x="0px" y="0px"
	 viewBox="0 0 175.03 69.27" style="enable-background:new 0 0 175.03 69.27;" xml:space="preserve">
<style type="text/css">
	.st0{display:none;}
	.st1{fill:#06BCD7;}
	.st2{clip-path:url(#SVGID_00000129893586461363786150000004136796966097528760_);fill:#058B9F;}
</style>
<g id="Layer_2" class="st0">
</g>
<g id="Layer_1">
	<g>
		<path class="st1" d="M28.16,51.17c0-1.24-0.62-2.22-1.85-2.94c-1.23-0.71-3.21-1.35-5.92-1.92c-9.05-1.9-13.57-5.74-13.57-11.53
			c0-3.38,1.4-6.19,4.2-8.46c2.8-2.26,6.46-3.39,10.99-3.39c4.83,0,8.69,1.14,11.58,3.41c2.89,2.27,4.34,5.23,4.34,8.86H27.77
			c0-1.45-0.47-2.65-1.41-3.6c-0.94-0.95-2.4-1.42-4.39-1.42c-1.71,0-3.04,0.39-3.97,1.16c-0.94,0.77-1.41,1.76-1.41,2.95
			c0,1.12,0.53,2.03,1.6,2.72c1.07,0.69,2.87,1.29,5.4,1.79c2.53,0.5,4.66,1.07,6.4,1.71c5.37,1.97,8.05,5.38,8.05,10.23
			c0,3.47-1.49,6.28-4.46,8.42c-2.98,2.14-6.82,3.22-11.53,3.22c-3.19,0-6.02-0.57-8.49-1.71c-2.47-1.14-4.41-2.69-5.82-4.68
			c-1.41-1.98-2.11-4.12-2.11-6.42h9.63c0.09,1.81,0.76,3.19,2,4.15c1.24,0.96,2.91,1.44,4.99,1.44c1.95,0,3.42-0.37,4.41-1.11
			C27.66,53.34,28.16,52.37,28.16,51.17z"/>
		<path class="st1" d="M67.36,57.82c-2.51,3.05-5.98,4.57-10.41,4.57c-4.08,0-7.19-1.17-9.33-3.52c-2.14-2.34-3.24-5.78-3.29-10.3
			V23.65h10.16v24.6c0,3.97,1.8,5.95,5.41,5.95c3.45,0,5.81-1.2,7.1-3.59V23.65h10.2v38.04h-9.56L67.36,57.82z"/>
		<path class="st1" d="M106.24,33.17c-1.38-0.19-2.6-0.28-3.66-0.28c-3.84,0-6.36,1.3-7.56,3.9v24.89H84.87V23.65h9.6l0.28,4.54
			c2.04-3.49,4.86-5.24,8.47-5.24c1.12,0,2.18,0.15,3.16,0.46L106.24,33.17z"/>
		<path class="st1" d="M114.61,61.69V31.1h-5.66v-7.45h5.66v-3.23c0-4.27,1.22-7.58,3.67-9.93c2.45-2.36,5.88-3.53,10.28-3.53
			c1.41,0,3.13,0.23,5.17,0.7l-0.11,7.88c-0.84-0.21-1.88-0.32-3.09-0.32c-3.82,0-5.73,1.79-5.73,5.38v3.06h7.56v7.45h-7.56v30.59
			H114.61z"/>
		<path class="st1" d="M159.01,33.17c-1.38-0.19-2.6-0.28-3.66-0.28c-3.84,0-6.36,1.3-7.56,3.9v24.89h-10.16V23.65h9.6l0.28,4.54
			c2.04-3.49,4.86-5.24,8.47-5.24c1.12,0,2.18,0.15,3.16,0.46L159.01,33.17z"/>
		<path class="st1" d="M158.34,56.69c0-1.62,0.54-2.93,1.63-3.94c1.09-1.01,2.46-1.51,4.1-1.51c1.66,0,3.04,0.5,4.13,1.51
			c1.09,1.01,1.63,2.32,1.63,3.94c0,1.59-0.54,2.89-1.62,3.88c-1.08,1-2.46,1.49-4.15,1.49c-1.67,0-3.04-0.5-4.11-1.49
			C158.88,59.58,158.34,58.29,158.34,56.69z"/>
	</g>
</g>
<g id="Layer_3">
	<g>
		<defs>
			<path id="SVGID_1_" d="M28.16,51.17c0-1.24-0.62-2.22-1.85-2.94c-1.23-0.71-3.21-1.35-5.92-1.92
				c-9.05-1.9-13.57-5.74-13.57-11.53c0-3.38,1.4-6.19,4.2-8.46c2.8-2.26,6.46-3.39,10.99-3.39c4.83,0,8.69,1.14,11.58,3.41
				c2.89,2.27,4.34,5.23,4.34,8.86H27.77c0-1.45-0.47-2.65-1.41-3.6c-0.94-0.95-2.4-1.42-4.39-1.42c-1.71,0-3.04,0.39-3.97,1.16
				c-0.94,0.77-1.41,1.76-1.41,2.95c0,1.12,0.53,2.03,1.6,2.72c1.07,0.69,2.87,1.29,5.4,1.79c2.53,0.5,4.66,1.07,6.4,1.71
				c5.37,1.97,8.05,5.38,8.05,10.23c0,3.47-1.49,6.28-4.46,8.42c-2.98,2.14-6.82,3.22-11.53,3.22c-3.19,0-6.02-0.57-8.49-1.71
				c-2.47-1.14-4.41-2.69-5.82-4.68c-1.41-1.98-2.11-4.12-2.11-6.42h9.63c0.09,1.81,0.76,3.19,2,4.15c1.24,0.96,2.91,1.44,4.99,1.44
				c1.95,0,3.42-0.37,4.41-1.11C27.66,53.34,28.16,52.37,28.16,51.17z M67.36,57.82c-2.51,3.05-5.98,4.57-10.41,4.57
				c-4.08,0-7.19-1.17-9.33-3.52c-2.14-2.34-3.24-5.78-3.29-10.3V23.65h10.16v24.6c0,3.97,1.8,5.95,5.41,5.95
				c3.45,0,5.81-1.2,7.1-3.59V23.65h10.2v38.04h-9.56L67.36,57.82z M106.24,33.17c-1.38-0.19-2.6-0.28-3.66-0.28
				c-3.84,0-6.36,1.3-7.56,3.9v24.89H84.87V23.65h9.6l0.28,4.54c2.04-3.49,4.86-5.24,8.47-5.24c1.12,0,2.18,0.15,3.16,0.46
				L106.24,33.17z M114.61,61.69V31.1h-5.66v-7.45h5.66v-3.23c0-4.27,1.22-7.58,3.67-9.93c2.45-2.36,5.88-3.53,10.28-3.53
				c1.41,0,3.13,0.23,5.17,0.7l-0.11,7.88c-0.84-0.21-1.88-0.32-3.09-0.32c-3.82,0-5.73,1.79-5.73,5.38v3.06h7.56v7.45h-7.56v30.59
				H114.61z M159.01,33.17c-1.38-0.19-2.6-0.28-3.66-0.28c-3.84,0-6.36,1.3-7.56,3.9v24.89h-10.16V23.65h9.6l0.28,4.54
				c2.04-3.49,4.86-5.24,8.47-5.24c1.12,0,2.18,0.15,3.16,0.46L159.01,33.17z M158.34,56.69c0-1.62,0.54-2.93,1.63-3.94
				c1.09-1.01,2.46-1.51,4.1-1.51c1.66,0,3.04,0.5,4.13,1.51c1.09,1.01,1.63,2.32,1.63,3.94c0,1.59-0.54,2.89-1.62,3.88
				c-1.08,1-2.46,1.49-4.15,1.49c-1.67,0-3.04-0.5-4.11-1.49C158.88,59.58,158.34,58.29,158.34,56.69z"/>
		</defs>
		<clipPath id="SVGID_00000078745824518265096390000012058157076622559417_">
			<use xlink:href="#SVGID_1_"  style="overflow:visible;"/>
		</clipPath>
		<path style="clip-path:url(#SVGID_00000078745824518265096390000012058157076622559417_);fill:#058B9F;" d="M-5.85,48.42
			C9.78,41.48,33.7,33.53,62.23,35.47c33.78,2.3,43.4,16.38,76.12,19.68c49.37,4.98,81.27-21.65,86.31-15.02
			c10.58,13.95-34.53,100.89-116.33,117.55C50.54,169.46,2.28,140.22-10.68,131.79"/>
	</g>
</g>
</svg>
