<?xml version="1.0" encoding="UTF-8"?>
<svg id="Layer_1" xmlns="http://www.w3.org/2000/svg" version="1.1" viewBox="0 0 100 100">
  <!-- Generator: Adobe Illustrator 29.2.1, SVG Export Plug-In . SVG Version: 2.1.0 Build 116)  -->
  <defs>
    <style>
      .st0 {
        fill: none;
      }

      .st1 {
        fill: #f3b31b;
      }

      .st2 {
        fill: #274d69;
      }
    </style>
  </defs>
  <rect class="st0" y="0" width="100" height="100"/>
  <path class="st2" d="M16.4,74.4c-1,0-1.8-.3-2.4-.9-.6-.6-.9-1.3-1-2l-5.8-34.8c0-.2-.6-3.4-.6-3.5s-.6-4-.6-4.1c-.4-2.2,0-2.9,1.2-2.9h11.1c1.6,0,2.2,1.6,2.3,2.9l3.8,20.1,6.3-20.1c.2-.5.5-1,.9-1.5.4-.6,1.1-.8,2-.8h6.3c1,0,1.7.3,2.1.8.4.6.7,1.1.8,1.5l6.3,20.1,3.9-20.1c.2-1.3.7-2.9,2.3-2.9h11.7c1.7,0,1.2,2.3,1.2,2.3,0,0-3.1,16.3-3.1,16.4-1.4,4.1.5-1.4,0,0l-5.5,25.8c.5.9.5,2.3,0,2.8s-1.3.9-2.3.9h-8.3c-1,0-1.7-.3-2.3-.8s-.9-1-1-1.5l-8.8-25-8.8,25c-.2.5-.5,1-1,1.5-.5.5-1.2.8-2.2.8h-8.3Z"/>
  <path class="st2" d="M63.8,43.6c-.1,4-.1,8,0,12,.1,3.2,1,5.6,2.6,7,1.6,1.4,3.7,2.1,6.3,2.1s3.2-.3,4.6-.9c1.4-.6,2.4-1.5,3.2-2.8.8-1.3,1.2-2.9,1.2-4.9v-1.3h-6.5c-.5,0-.9-.2-1.2-.5-.3-.3-.5-.8-.5-1.3v-5.1c0-.5.2-.9.5-1.3.3-.3.7-.5,1.2-.5h17.4c.5,0,.9.2,1.2.5.3.3.5.8.5,1.3v7.9c0,4-.9,7.3-2.7,10.2-1.8,2.8-4.3,5-7.6,6.5-3.3,1.5-6.7,2-11.1,2s-6.7.2-9.9-2.5-3-1.2-5.3-1.2c-3.3,0-6.5-10.8-6.7-14.8,0-2,1.6-4,1.6-6.3s.4-4.4.5-6.4"/>
  <path class="st1" d="M73.3,28.2c0-1.2.9-2.1,2.1-2,2.4.1,4.6.5,6.5,1.1,2.7.8,4.9,1.9,6.8,3.3,1.8,1.4,3.3,2.9,4.3,4.6,1,1.7,1.5,3.4,1.6,5,0,.4-.1.8-.4,1-.3.3-.6.4-1.1.4l-10.1.2c-.5,0-.9,0-1.1-.2-.3-.2-.5-.4-.7-.7-.3-.7-.8-1.4-1.5-2.2-.6-.7-1.5-1.4-2.6-1.9-.5-.3-1.1-.5-1.8-.6-1.1-.2-1.9-1.1-1.9-2.2v-5.8Z"/>
</svg>