<?xml version="1.0" encoding="utf-8"?>
<!-- Generator: Adobe Illustrator 28.1.0, SVG Export Plug-In . SVG Version: 6.00 Build 0)  -->
<svg version="1.1" id="Layer_1" xmlns="http://www.w3.org/2000/svg" xmlns:xlink="http://www.w3.org/1999/xlink" x="0px" y="0px"
	 viewBox="0 0 400 400" style="enable-background:new 0 0 400 400;" xml:space="preserve">
<style type="text/css">
	.st0{fill:#0ABCD7;}
	.st1{fill:#088B9F;}
</style>
<g>
	<path class="st0" d="M177.86,241.6c0-6.9-3.42-12.33-10.25-16.31c-6.84-3.97-17.81-7.52-32.91-10.64
		c-50.26-10.55-75.39-31.9-75.39-64.06c0-18.75,7.78-34.41,23.34-46.97c15.56-12.56,35.9-18.85,61.04-18.85
		c26.82,0,48.27,6.32,64.36,18.95c16.08,12.63,24.12,29.04,24.12,49.22h-56.45c0-8.07-2.61-14.75-7.81-20.02
		c-5.21-5.27-13.35-7.91-24.41-7.91c-9.51,0-16.86,2.15-22.07,6.45c-5.21,4.3-7.81,9.77-7.81,16.41c0,6.25,2.96,11.3,8.89,15.14
		c5.92,3.84,15.92,7.16,29.98,9.96c14.06,2.8,25.91,5.96,35.55,9.47c29.82,10.94,44.73,29.88,44.73,56.84
		c0,19.27-8.27,34.86-24.8,46.78c-16.54,11.91-37.89,17.87-64.06,17.87c-17.71,0-33.43-3.16-47.17-9.47
		c-13.74-6.31-24.51-14.97-32.32-25.98c-7.81-11-11.72-22.88-11.72-35.64h53.52c0.52,10.03,4.23,17.71,11.13,23.05
		c6.9,5.34,16.14,8.01,27.73,8.01c10.81,0,18.98-2.05,24.51-6.15C175.09,253.61,177.86,248.24,177.86,241.6z"/>
	<path class="st0" d="M272,272.27c0-8.98,3.03-16.28,9.08-21.88c6.05-5.6,13.64-8.4,22.75-8.4c9.24,0,16.89,2.8,22.95,8.4
		c6.05,5.6,9.08,12.89,9.08,21.88c0,8.86-3,16.05-8.98,21.58c-5.99,5.54-13.67,8.3-23.05,8.3c-9.25,0-16.86-2.76-22.85-8.3
		C274.99,288.31,272,281.12,272,272.27z"/>
</g>
<g>
	<path class="st1" d="M188.01,182.42c-5.89-2.15-12.61-4.16-20.15-6.04c-24.08-2.57-58.16-2.28-93.1,11.22
		c12.45,12.25,32.42,21.27,59.93,27.04c15.1,3.12,26.07,6.67,32.91,10.64c6.84,3.97,10.25,9.41,10.25,16.31
		c0,6.64-2.77,12.01-8.3,16.11c-5.54,4.1-13.71,6.15-24.51,6.15c-11.59,0-20.83-2.67-27.73-8.01c-6.9-5.34-10.61-13.02-11.13-23.05
		H52.66c0,12.76,3.91,24.64,11.72,35.64c7.81,11,18.58,19.66,32.32,25.98c13.74,6.31,29.46,9.47,47.17,9.47
		c26.17,0,47.52-5.96,64.06-17.87c16.53-11.91,24.8-27.51,24.8-46.78C232.74,212.3,217.83,193.36,188.01,182.42z"/>
	<path class="st1" d="M302.4,262.06c-10.8-1.79-19.05-5.92-23.99-8.84c-4.27,5.16-6.41,11.5-6.41,19.05
		c0,8.86,2.99,16.05,8.98,21.58c5.99,5.54,13.6,8.3,22.85,8.3c9.38,0,17.06-2.76,23.05-8.3c5.99-5.53,8.98-12.73,8.98-21.58
		c0-4.13-0.65-7.89-1.92-11.3c-0.31,0.06-0.62,0.12-0.94,0.18C328.12,262.06,315.78,264.27,302.4,262.06z"/>
</g>
</svg>
